<?xml version="1.0" encoding="utf-8"?><svg xmlns="http://www.w3.org/2000/svg" xmlns:xlink="http://www.w3.org/1999/xlink"><symbol viewBox="0 0 44 44" id="ic_court" xmlns="http://www.w3.org/2000/svg"><path fill="none" d="M0 0h44v44H0z"/><path d="M22.6 36.802a1.2 1.2 0 0 1 0 2.4H4.2a1.2 1.2 0 0 1 0-2.4h1.2a2.418 2.418 0 0 1 .743-1.772 2.449 2.449 0 0 1 1.714-.685h11.028a2.349 2.349 0 0 1 2.458 2.457zM18.2 5.488a1.071 1.071 0 0 1 1.714-.115L30.2 14.002a1.071 1.071 0 0 1 .114 1.714l-.857.971a1.053 1.053 0 0 1-1.714.172l-1.829-1.543c-.342-.266-.629-.247-.857.057a.536.536 0 0 0 .057.857 1.075 1.075 0 0 1 .114 1.715l-2.343 2.8 5.372 4.514a2.487 2.487 0 0 1 3.486-.286l9.657 8.343a1.1 1.1 0 0 1 .172 1.714l-3.143 3.772a1.1 1.1 0 0 1-1.715.171L27 30.573a2.6 2.6 0 0 1-.857-1.657 2.426 2.426 0 0 1 .571-1.771l-5.371-4.515L19 25.43a1.074 1.074 0 0 1-1.715.114.558.558 0 0 0-.856.114.536.536 0 0 0 .057.857l1.885 1.543a1.074 1.074 0 0 1 .115 1.714l-.857 1.029a1.1 1.1 0 0 1-1.715.171L5.686 22.344a1.112 1.112 0 0 1-.172-1.772l.857-.971a1.1 1.1 0 0 1 1.715-.171l1.828 1.6a.518.518 0 0 0 .857-.114.537.537 0 0 0-.057-.857 1.069 1.069 0 0 1-.114-1.714l6.228-7.486a1.076 1.076 0 0 1 1.715-.115.518.518 0 0 0 .857-.114.538.538 0 0 0-.057-.857L17.457 8.23a1.073 1.073 0 0 1-.114-1.714z"/></symbol><symbol viewBox="0 0 44 44" id="ic_gibdd" xmlns="http://www.w3.org/2000/svg"><path fill="none" d="M0 0h44v44H0z"/><path d="M27.986 38.132c3.9-.066 7.6.429 8.833.962-1.22.278-4.818-.233-8.833-.962m-7.569-19.6 5.049 5.049-4.039 4.038-5.048-5.048zm8.771-8.771 5.049 5.048-4.039 4.039L25.15 13.8zm-6.347 27.372a617.568 617.568 0 0 1-5.3-1.105c-1.806-.382-3.324-.7-4.578-.953l3.209-3.209c.075 0 .149.022.224.022a4.268 4.268 0 0 0 3.029-1.255l1.34-1.34 1.169-1.169 4.038-4.039 4.733-4.732 4.039-4.039 1.036-1.037 1.967-1.966a4.284 4.284 0 0 0-6.058-6.058l-1.967 1.966-1.036 1.037-4.039 4.039-4.733 4.732-4.038 4.039-1.169 1.169-1.34 1.34a4.257 4.257 0 0 0-1.234 3.253l-5.294 5.294a2.856 2.856 0 1 0 4.039 4.039l.869-.87c1.529.3 3.481.707 5.5 1.134q1.189.252 2.3.485c-7.16 2-10.508 1.491-11.367.846-.233-.174-.233-.31-.233-.368a.714.714 0 0 0-1.428 0 1.841 1.841 0 0 0 .8 1.512 6.544 6.544 0 0 0 3.795.856 36.27 36.27 0 0 0 9.651-1.712 18.721 18.721 0 0 1 2.029-.466c9.153 1.851 13.889 2.483 15.174 1.546a1.146 1.146 0 0 0 .477-1.474c-.883-1.788-9.582-2.483-15.609-1.517"/></symbol><symbol viewBox="0 0 44 44" id="ic_help" xmlns="http://www.w3.org/2000/svg"><g transform="translate(4 4)" fill="none" stroke-width="2"><circle cx="18" cy="18" r="18"/><circle cx="18" cy="18" r="16.5"/></g><path d="M19.771 24.374V23.6a2.892 2.892 0 0 1 .362-1.5 3.8 3.8 0 0 1 1.285-1.19 4.827 4.827 0 0 0 1.055-.833 1.262 1.262 0 0 0 .321-.851.684.684 0 0 0-.344-.6 1.629 1.629 0 0 0-.9-.222 7.048 7.048 0 0 0-3.2.969l-1.25-2.467a9.37 9.37 0 0 1 4.707-1.285 5.069 5.069 0 0 1 3.168.887 2.889 2.889 0 0 1 1.15 2.417 3.448 3.448 0 0 1-.511 1.9 5.211 5.211 0 0 1-1.634 1.516 6.32 6.32 0 0 0-1.19.9 1.014 1.014 0 0 0-.24.674v.462zm-.389 3.168a1.673 1.673 0 0 1 .484-1.285 2.017 2.017 0 0 1 1.426-.453 1.948 1.948 0 0 1 1.389.457 1.676 1.676 0 0 1 .484 1.281 1.63 1.63 0 0 1-.5 1.276 1.973 1.973 0 0 1-1.371.453 2.046 2.046 0 0 1-1.4-.448 1.619 1.619 0 0 1-.513-1.281z"/><path fill="none" d="M0 0h44v44H0z"/></symbol><symbol viewBox="0 0 44 44" id="ic_registry" xmlns="http://www.w3.org/2000/svg"><path fill="none" d="M0 0h44v44H0z"/><path d="M38.618 16.971a.547.547 0 0 1 .171.629l-9.257 22.914a.487.487 0 0 1-.515.342.506.506 0 0 1-.228-.057l-12.171-4.457a.51.51 0 0 1-.343-.285.6.6 0 0 1 0-.515l1.085-2.171-11.028-5.257a.508.508 0 0 1-.286-.343.407.407 0 0 1 .058-.457l3.428-6.057 9.6-16.972A.613.613 0 0 1 19.704 4l12.171 1.257h.057a.162.162 0 0 0 .114.057h.058v.057h.057v.057h.057l.057.057a.05.05 0 0 0 .057.057v.115l.057.057v.228a.051.051 0 0 1-.057.058v.057l-1.543 3.257zm-26.629 5.885-4.514 4.515.857.4 4.571-4.571zm-3.2 2 2.286-2.342-.8-.286zm.343 3.315.857.4 4.743-4.743-.914-.343zm1.657.8.857.4 4.857-4.914-.914-.286zm1.657.8.857.4 5.029-5.028-.915-.344zm1.658.8.856.4 5.2-5.2-.915-.343zm3.256-20.8-1.656 2.914 7.142-7.2-1.085-.114zm-1.6 21.543.857.4 5.314-5.315-.915-.342zm9.314-25.6L23.988 5.6l-7.714 7.714.971.286zm-7.658 26.4.858.4 5.486-5.486-.915-.286zm8.172-4.4-.914-.343-6 6-1.086 2.114.115.057zm1.714-21.772-1.085-.114-8.057 8.057.971.229zm.057 22.4L26.445 28l-7.828 7.885.914.343zM20.674 5.257l-.743-.057-1.029 1.771zm8.857.914-1.086-.114-8.342 8.342.971.286zm-.343 22.8-.914-.343-7.886 7.886.914.342zm1.486-22.686-8.686 8.629.971.286 7.144-7.143.856-1.715zm.285 23.315-.914-.286-7.828 7.886.857.285zm-1.943-19.2-5.085 5.086.971.229 2.972-2.972zm3.429 19.772-.571-.229-7.886 7.886.914.343 7.258-7.315zm5.143-12.686L30.274 10.4l-2.915 6.057 1.657.458a.513.513 0 0 1 .343.286.606.606 0 0 1 0 .514l-4.171 8.628 7.714 2.743zM26.674 38.8l3.828-3.828.857-2.057-5.6 5.6zm.114-23.714-.971.915.457.114zm2.915 21.943-2.115 2.115 1.086.4z"/></symbol><symbol viewBox="0 0 24 24" id="ic_search" xmlns="http://www.w3.org/2000/svg"><path fill="none" d="M0 0h24v24H0z"/><path d="m20.152 22.529-3.564-3.565q-.054-.054-.1-.111a9.176 9.176 0 0 1-5.245 1.629 9.18 9.18 0 0 1-6.534-2.706 9.18 9.18 0 0 1-2.707-6.535 9.177 9.177 0 0 1 2.707-6.534A9.177 9.177 0 0 1 11.243 2a9.183 9.183 0 0 1 6.535 2.706 9.183 9.183 0 0 1 2.706 6.535 9.176 9.176 0 0 1-1.63 5.245q.057.048.111.1l3.564 3.565a1.68 1.68 0 0 1 0 2.376 1.675 1.675 0 0 1-1.188.492 1.675 1.675 0 0 1-1.189-.49zM6.489 6.489a6.728 6.728 0 0 0 0 9.5 6.728 6.728 0 0 0 9.5 0 6.728 6.728 0 0 0 0-9.5 6.7 6.7 0 0 0-4.753-1.966 6.7 6.7 0 0 0-4.747 1.966z"/></symbol><symbol viewBox="0 0 44 44" id="ic_tax" xmlns="http://www.w3.org/2000/svg"><path fill="none" d="M0 0h44v44H0z"/><path d="m36.143 25.2-1.086-.515A14.914 14.914 0 0 0 21 5.143 14.926 14.926 0 0 0 6.143 20a14.453 14.453 0 0 0 3.771 9.942 14.3 14.3 0 0 0 9.372 4.858v1.142A15.949 15.949 0 1 1 37 20a15.986 15.986 0 0 1-.857 5.2zM11.286 10.342a13.159 13.159 0 0 0-4 9.658 13.374 13.374 0 0 0 3.429 9.143 13.2 13.2 0 0 0 8.571 4.514v-7.029h-2.114c-.267 0-.4-.151-.4-.457v-.8a.411.411 0 0 1 .228-.4q.515-.171 1.029-.4a4.349 4.349 0 0 1 .743-.172v-9.142h-.057q-.63.057-1.258.057h-.571a.366.366 0 0 1-.4-.343l-.114-.743a.449.449 0 0 1 .343-.457 17.107 17.107 0 0 0 2.171-.686A11.521 11.521 0 0 0 21.057 12a.508.508 0 0 1 .229-.058h1.257a.354.354 0 0 1 .4.4V18.8l11.086 5.371A12.771 12.771 0 0 0 34.715 20a13.068 13.068 0 0 0-4.058-9.658c-2.666-2.7-4.814-4.057-9.657-4.057s-7.422 1.948-9.714 4.057zm10.8 29.429V21.485l16.343 7.943a.462.462 0 0 0 .743-.228.521.521 0 0 0-.229-.8l-17.2-8.285a.428.428 0 0 0-.514 0 .516.516 0 0 0-.286.457v19.2a.572.572 0 0 0 1.143 0zm1.143-2.743a14.525 14.525 0 0 0 7.486-2.285 14.321 14.321 0 0 0 4.971-5.372l-1.029-.514a12.447 12.447 0 0 1-11.428 7.028z"/></symbol><symbol viewBox="0 0 110 100" id="logo_partner-1" xmlns="http://www.w3.org/2000/svg"><defs><clipPath id="ga"><path fill="none" d="M0 0h110v100H0z"/></clipPath></defs><g opacity=".35" clip-path="url(#ga)"><path d="m54.863 7 1.138 26.431 4.805-26.016-2.552 26.332 8.379-25.094-6.192 25.721 11.79-23.683L62.52 35.3l14.971-21.812L64.45 36.506l17.864-19.515L66.196 37.97l20.4-16.84-18.882 18.53 22.55-13.835-21.276 15.723 24.255-10.564-23.257 12.609 25.489-7.086-24.786 9.25 26.227-3.469-25.832 5.71 26.455.215-26.375 2.06 26.167 3.894-26.405-1.631 25.371 7.5-25.921-5.29 24.08 10.956-24.933-8.846 22.321 14.2-23.459-12.231 20.129 17.167-21.53-15.376 17.542 19.8-19.179-18.223 14.615 22.052-16.456-20.71 11.4 23.871-13.413-22.8 7.971 25.226-10.109-24.448 4.382 26.09-6.608-25.617.709 26.446-2.979-26.287-2.979 26.287.709-26.446-6.608 25.617 4.382-26.09-10.105 24.441 7.971-25.226-13.413 22.8 11.4-23.871L29.76 84.242 44.375 62.19 25.196 80.413l17.542-19.8-21.524 15.379L41.34 58.825l-23.459 12.23 22.321-14.2-24.933 8.846 24.08-10.956-25.921 5.29 25.371-7.5-26.405 1.631 26.167-3.894-26.375-2.06 26.455-.215-25.832-5.71 26.227 3.469-24.786-9.25 25.489 7.086-23.257-12.609 24.255 10.564-21.276-15.722L42.014 39.66 23.129 21.125l20.4 16.84-16.115-20.974 17.861 19.516-13.041-23.018 14.971 21.812-9.711-24.609 11.79 23.683-6.192-25.721 8.379 25.094-2.552-26.332 4.805 26.016z"/><path d="M40.786 79.996 2.864 62.759V36.813l37.922-17.237H68.94l37.922 17.237v25.946L68.94 79.996z"/><path d="m68.536 21.441 36.461 16.573v23.545L68.536 78.132H41.19L4.727 61.559V38.014l36.461-16.573h27.346m.808-3.729h-28.96l-.736.334L3.185 34.619l-2.186.993v28.347l2.186.994 36.461 16.573.736.334h28.961l.735-.334 36.461-16.573 2.186-.994V35.613l-2.186-.993-36.461-16.573-.735-.334z"/><path d="M40.92 79.375 3.485 62.359V37.214L40.92 20.198h27.884l37.435 17.016v25.145L68.804 79.375z"/><path d="m68.536 21.444 36.461 16.573v23.545L68.536 78.135H41.19L4.729 61.562V38.014l36.461-16.57h27.346m.539-2.486H40.651l-.49.223L3.7 35.751l-1.457.663v26.747l1.457.662 36.461 16.573.49.223H69.07l.49-.223 36.461-16.573 1.457-.662V36.413l-1.457-.663L69.56 19.177l-.49-.223z" fill="#fff"/></g></symbol><symbol viewBox="0 0 90 100" id="logo_partner-2" xmlns="http://www.w3.org/2000/svg"><defs><clipPath id="ha"><path transform="translate(35)" fill="none" d="M0 0h90v100H0z"/></clipPath></defs><g transform="translate(-35)" clip-path="url(#ha)"><g opacity=".35"><path d="M80.55 91.086a40.923 40.923 0 0 1-34.1-18.377l-.687-1.033.687-1.033a38.2 38.2 0 0 0 0-42.185l-.687-1.033.687-1.033a40.819 40.819 0 0 1 68.194 0l.687 1.033-.687 1.033a38.208 38.208 0 0 0 0 42.185l.687 1.033-.687 1.033A40.921 40.921 0 0 1 80.55 91.086z"/><path d="M80.55 8.813a40.7 40.7 0 0 1 33.821 18.025 40.75 40.75 0 0 0 0 45.424 40.743 40.743 0 0 1-67.642 0 40.751 40.751 0 0 0 0-45.424A40.7 40.7 0 0 1 80.55 8.813m0-3.8a44.507 44.507 0 0 0-36.973 19.7l-1.427 2.121 1.427 2.121a36.951 36.951 0 0 1 0 41.182l-1.427 2.121 1.427 2.121a44.542 44.542 0 0 0 73.947 0l1.427-2.121-1.427-2.121a36.951 36.951 0 0 1 0-41.182l1.427-2.121-1.427-2.121a44.507 44.507 0 0 0-36.973-19.7z"/><path d="M80.55 90.086a39.712 39.712 0 0 1-33.127-17.935l-.452-.682.452-.682a38.61 38.61 0 0 0 0-42.472l-.452-.683.452-.682a39.561 39.561 0 0 1 66.254 0l.452.682-.452.683a38.61 38.61 0 0 0 0 42.472l.452.682-.452.682A39.712 39.712 0 0 1 80.55 90.086z"/><path d="M80.55 9.504a39.646 39.646 0 0 1 33.01 17.72 40.3 40.3 0 0 0 0 44.654 39.608 39.608 0 0 1-66.021 0 40.3 40.3 0 0 0 0-44.654 39.646 39.646 0 0 1 33.01-17.72m0-2.49a42.123 42.123 0 0 0-35.056 18.819l-.929 1.39.929 1.39a37.8 37.8 0 0 1 0 41.874l-.929 1.39.929 1.39a42.07 42.07 0 0 0 70.122 0l.929-1.39-.929-1.39a37.8 37.8 0 0 1 0-41.874l.929-1.39-.929-1.39A42.123 42.123 0 0 0 80.554 7.014z" fill="#fff"/></g></g></symbol><symbol viewBox="0 0 100 100" id="logo_partner-3" xmlns="http://www.w3.org/2000/svg"><defs><clipPath id="ia"><path transform="translate(3)" fill="none" d="M0 0h100v100H0z"/></clipPath></defs><g transform="translate(-3)" clip-path="url(#ia)"><g opacity=".35"><path d="M4.646 57.884v-2.23l6.331-9.163-6.331-9.163v-2.23h96.083v2.23l-6.331 9.163 6.331 9.164v2.23z"/><path d="M100.468 35.355v1.482l-6.51 9.654 6.51 9.653v1.482H4.904v-1.482l6.51-9.653-6.51-9.654v-1.482h95.564m1.258-1.258H3.646v3.124l.215.319 6.036 8.951-6.036 8.95-.215.319v3.124h98.083v-3.129l-.215-.319-6.036-8.95 6.036-8.951.215-.319v-3.124z" fill="#fff"/><path d="M32.963 72.228a26.571 26.571 0 0 1-3.7-3.292 26.474 26.474 0 0 1-7.116-18.1V18.905l30.535-6.411 30.536 6.411v31.931a26.477 26.477 0 0 1-7.116 18.1 26.571 26.571 0 0 1-3.7 3.292l-19.723 14.5z"/><path d="m52.685 13.286 29.763 6.234v31.482a25.539 25.539 0 0 1-6.87 17.425 25.525 25.525 0 0 1-3.567 3.169L52.684 85.769 33.358 71.596a25.524 25.524 0 0 1-3.567-3.169 25.539 25.539 0 0 1-6.869-17.426V19.519l29.762-6.234m0-3.855-.773.162-29.762 6.234-3 .628v34.547a29.218 29.218 0 0 0 7.883 20 29.414 29.414 0 0 0 4.1 3.637l19.322 14.175 2.231 1.636 2.232-1.636L74.243 74.64a29.409 29.409 0 0 0 4.1-3.637 29.218 29.218 0 0 0 7.883-20V16.456l-3-.628-29.763-6.234-.773-.162z"/><path d="M33.096 72.018a26.235 26.235 0 0 1-3.653-3.251 26.138 26.138 0 0 1-7.035-17.876V19.112l30.278-6.352 30.278 6.352v31.779a26.138 26.138 0 0 1-7.035 17.876 26.2 26.2 0 0 1-3.654 3.251l-19.59 14.39z"/><path d="m52.686 13.286 29.763 6.234v31.482a25.539 25.539 0 0 1-6.869 17.426 25.524 25.524 0 0 1-3.567 3.169L52.686 85.769 33.36 71.596a25.524 25.524 0 0 1-3.567-3.169 25.539 25.539 0 0 1-6.869-17.426V19.519l29.762-6.234m0-2.57-.516.108-29.762 6.232-2 .419v33.525a27.963 27.963 0 0 0 7.545 19.142 28.15 28.15 0 0 0 3.919 3.481l19.327 14.173 1.487 1.091 1.488-1.091L73.5 73.625a28.114 28.114 0 0 0 3.919-3.481 27.961 27.961 0 0 0 7.545-19.142V17.477l-2-.419-29.763-6.234-.516-.108z" fill="#fff"/><path d="M16.794 28.82h71.783v22.787H16.794z"/><path d="M88.32 29.078V51.35H17.052V29.078H88.32m1.258-1.258H15.794v24.787h73.784V27.82z" fill="#fff"/></g></g></symbol><symbol viewBox="0 0 148 100" id="logo_partner-4" xmlns="http://www.w3.org/2000/svg"><g opacity=".35"><path d="m5.681 50.142 67.855-28.146 67.855 28.146-67.856 28.145z"/><path d="m73.536 23.994 63.04 26.148-63.04 26.148-63.041-26.148 63.04-26.148m0-3.994-1.414.586L9.082 46.734.866 50.142l8.216 3.408 63.04 26.148 1.414.586 1.413-.586 63.038-26.148 8.216-3.408-8.216-3.408-63.038-26.148L73.536 20z"/><path d="m7.285 50.142 66.25-27.48 66.25 27.48-66.25 27.48z"/><path d="m73.536 23.994 63.04 26.148-63.04 26.148-63.041-26.148 63.04-26.148m0-2.663-.943.391L9.553 47.87l-5.477 2.272 5.477 2.272 63.04 26.148.943.391.942-.391 63.04-26.148 5.477-2.272-5.477-2.271-63.042-26.149-.942-.391z" fill="#fff"/><path d="M43.117 36.614v27.059l30.419 12.618 30.419-12.618V36.614L73.536 23.993z" fill="#fff"/><path d="m73.535 25.99 58.225 24.151-58.225 24.152-58.226-24.151L73.535 25.99m0-2-63.04 26.152 63.04 26.148 63.04-26.148-63.04-26.148z"/></g><path fill="none" d="M0 0h148v100H0z"/></symbol><symbol viewBox="0 0 115 100" id="logo_partner-5" xmlns="http://www.w3.org/2000/svg"><defs><clipPath id="ka"><path transform="translate(0 9.302)" fill="none" d="M0 0h115v100H0z"/></clipPath></defs><g transform="translate(0 -9.302)" clip-path="url(#ka)"><g opacity=".35"><circle cx="40.786" cy="40.786" r="40.786" transform="rotate(-45 69.626 28.84)"/><path d="M57.682 18.738a38.942 38.942 0 1 1-38.943 38.945 38.942 38.942 0 0 1 38.943-38.945m0-3.689a42.631 42.631 0 1 0 42.63 42.634 42.679 42.679 0 0 0-42.63-42.634z"/><g transform="translate(.87 .87)"><circle cx="40.171" cy="40.171" r="40.171" transform="rotate(-45 68.577 28.405)"/><path d="M56.811 17.869A38.941 38.941 0 1 1 17.87 56.81a38.942 38.942 0 0 1 38.941-38.941m0-2.459a41.4 41.4 0 1 0 41.4 41.4 41.448 41.448 0 0 0-41.4-41.4z" fill="#fff"/></g><path d="M1.122 69.186v-2.252l6.238-9.251-6.238-9.251V46.18h113.116v2.252L108 57.683l6.238 9.251v2.252z" fill="#fff"/><path d="M113.623 46.793v1.449l-6.365 9.439 6.365 9.439v1.451H1.737v-1.449l6.365-9.439-6.365-9.439v-1.449h111.886m1.23-1.23H.507v3.054l.21.312 5.9 8.752-5.9 8.751-.21.312v3.055h114.346v-3.055l-.21-.312-5.9-8.751 5.9-8.752.21-.312v-3.054z"/><path d="M57.68 77.561A19.881 19.881 0 1 1 77.56 57.68a19.9 19.9 0 0 1-19.88 19.881z" fill="#fff"/><path d="M57.68 38.418A19.266 19.266 0 1 1 38.417 57.68 19.266 19.266 0 0 1 57.68 38.418m0-1.23a20.5 20.5 0 1 0 20.5 20.5 20.518 20.518 0 0 0-20.5-20.5z"/></g></g></symbol><symbol viewBox="0 0 114 100" id="logo_partner-6" xmlns="http://www.w3.org/2000/svg"><defs><clipPath id="la"><path fill="none" d="M0 0h114v100H0z"/></clipPath></defs><g opacity=".35" clip-path="url(#la)"><path d="m10.742 83.544 2.457-8.866-7.379-5.579-.583-1.712 97.853-43.932.615 1.809-2.457 8.866 7.379 5.579.584 1.712-97.853 43.932z" fill="#fff"/><path d="m103.307 23.502.39 1.155-2.535 9.239 7.615 5.814.39 1.155-98.028 44.439-.39-1.155 2.535-9.239-7.615-5.815-.39-1.155 98.027-44.439m.615-1.415-1.042.472-98.026 44.44-.853.387.3.887.39 1.155.1.3.251.192 7.06 5.391-2.351 8.566-.084.305.1.3.39 1.155.366 1.084 1.042-.472 98.027-44.439.853-.387-.3-.887-.39-1.155-.1-.3-.251-.192-7.061-5.391 2.351-8.566.083-.305-.1-.3-.39-1.155-.366-1.084z"/><path d="M25.805 68.527V16.6h62.33v51.927L56.968 83.819z"/><path d="M88.035 16.705v51.771L56.973 83.702 25.911 68.476V16.705h62.124m3.1-3.1h-68.33v56.811l1.738.852 31.062 15.227 1.367.67 1.367-.67 31.062-15.227 1.738-.852V13.6z"/><path d="M25.84 68.51V16.635h62.264V68.51L56.97 83.779z"/><path d="M88.034 16.705v51.774L56.97 83.702 25.91 68.479V16.705h62.124m2.07-2.07H23.84v55.13l1.159.568L56.061 85.56l.911.447.911-.447 31.062-15.227 1.159-.568v-55.13z" fill="#fff"/><path d="m22.269 70.181 69.407-30.877V20.612L22.269 51.489z" fill="#fff"/><path d="M21.269 71.731V51.339l71.407-32.276v20.392zm1.035-19.724v18.12l69.337-31.34v-18.12z"/></g></symbol><symbol viewBox="0 0 294.814 44" id="logo_site-logo" xmlns="http://www.w3.org/2000/svg"><defs><clipPath id="ma"><path transform="translate(475 11)" fill="#fff" d="M0 0h44v44H0z"/></clipPath></defs><g transform="translate(-475 -11)" clip-path="url(#ma)"><g transform="rotate(-45 477.554 -29.209)"><path fill="#569ddc" d="m432.48 17.476 25.51-9.282 9.282 25.511-25.51 9.282z"/><path fill="#004685" d="M432.612 17.344h27.139v27.139h-27.139z"/><circle cx="2.326" cy="2.326" r="2.326" transform="translate(451.492 28.979)" fill="#fff"/></g></g><path d="M66.547 35h-6.172V17.2H54.8v-5.044h17.309V17.2h-5.562zm30.966 0h-6.2v-9.312h-7.175V35h-6.2V12.156h6.2v8.469h7.172v-8.469h6.2zm7.5 0V12.156h6.2V35zm28.638-6.937a6.739 6.739 0 0 1-1.078 3.773 7.06 7.06 0 0 1-3.112 2.564 11.526 11.526 0 0 1-4.766.914 19.28 19.28 0 0 1-3.828-.32 14.212 14.212 0 0 1-3.219-1.117v-5.5a18.381 18.381 0 0 0 3.672 1.414 13.682 13.682 0 0 0 3.5.508 3.4 3.4 0 0 0 2.016-.477 1.465 1.465 0 0 0 .641-1.227 1.35 1.35 0 0 0-.258-.82 3 3 0 0 0-.828-.711q-.57-.359-3.039-1.469a14.58 14.58 0 0 1-3.352-1.97 6.044 6.044 0 0 1-1.656-2.187 7.261 7.261 0 0 1-.539-2.922 5.856 5.856 0 0 1 2.3-4.922 10.125 10.125 0 0 1 6.313-1.766 17.714 17.714 0 0 1 7.234 1.641l-1.891 4.766a13.7 13.7 0 0 0-5.531-1.469 2.882 2.882 0 0 0-1.75.422 1.276 1.276 0 0 0-.547 1.047 1.512 1.512 0 0 0 .7 1.2 26.507 26.507 0 0 0 3.767 1.94 10.437 10.437 0 0 1 4.1 2.852 6.193 6.193 0 0 1 1.149 3.836zm19.81.734a5.749 5.749 0 0 1-2.2 4.781 9.588 9.588 0 0 1-6.078 1.734 14.5 14.5 0 0 1-6.344-1.2v-3.534a17.242 17.242 0 0 0 3.32 1.156 14.078 14.078 0 0 0 3.273.422 5.207 5.207 0 0 0 3.273-.844 2.751 2.751 0 0 0 1.055-2.266 2.839 2.839 0 0 0-.969-2.172 14.584 14.584 0 0 0-4-2.109 10.582 10.582 0 0 1-4.406-2.891 6.116 6.116 0 0 1-1.285-3.905 5.471 5.471 0 0 1 2.031-4.5 8.426 8.426 0 0 1 5.453-1.641 16.022 16.022 0 0 1 6.531 1.438l-1.187 3.047a14.269 14.269 0 0 0-5.437-1.281 4.173 4.173 0 0 0-2.75.789 2.592 2.592 0 0 0-.937 2.086 2.937 2.937 0 0 0 .375 1.523 3.83 3.83 0 0 0 1.234 1.2 20.879 20.879 0 0 0 3.094 1.484 16.928 16.928 0 0 1 3.688 1.953 5.745 5.745 0 0 1 1.719 2.047 6.157 6.157 0 0 1 .545 2.686zm6.982 6.2V12.156h3.734V35zm20.216 0h-3.734V15.359H170.2v-3.2h17.172v3.2h-6.719zm25.7 0h-12.923V12.156h12.922v3.156h-9.188v6.219h8.609v3.125h-8.609v7.172h9.188zm13.669 0h-1.609V13.656H211v-1.5h16.453v1.5h-7.422zM233.4 35V12.156h1.594V35zm16.576 0h-1.609V13.656h-7.422v-1.5H257.4v1.5h-7.422zm13.372 0V12.156h1.594V33.5h10.891V35zm31.466 0h-12.485V12.156h12.484v1.469h-10.89v8.641H294.2v1.469h-10.277v9.8h10.891z" fill="#004685"/></symbol></svg>